<svg width="178" height="28" viewBox="0 0 178 28" fill="none" xmlns="http://www.w3.org/2000/svg">
<path d="M0.710227 8.99006V6.45455H12.6562V8.99006H8.20312V21H5.16335V8.99006H0.710227ZM14.8533 21H11.5579L16.5792 6.45455H20.5423L25.5565 21H22.261L18.6175 9.77841H18.5039L14.8533 21ZM14.6474 15.2827H22.4315V17.6832H14.6474V15.2827ZM34.3658 10.6378C34.3089 10.0649 34.0651 9.61979 33.6342 9.30256C33.2034 8.98532 32.6186 8.8267 31.88 8.8267C31.3781 8.8267 30.9543 8.89773 30.6087 9.03977C30.263 9.17708 29.9979 9.36884 29.8132 9.61506C29.6333 9.86127 29.5433 10.1406 29.5433 10.4531C29.5339 10.7135 29.5883 10.9408 29.7067 11.1349C29.8298 11.3291 29.9979 11.4972 30.2109 11.6392C30.424 11.7765 30.6702 11.8973 30.9496 12.0014C31.2289 12.1009 31.5272 12.1861 31.8445 12.2571L33.1513 12.5696C33.7857 12.7116 34.3681 12.901 34.8984 13.1378C35.4287 13.3745 35.888 13.6657 36.2763 14.0114C36.6645 14.357 36.9652 14.7642 37.1783 15.233C37.3961 15.7017 37.5073 16.2391 37.5121 16.8452C37.5073 17.7353 37.2801 18.5071 36.8303 19.1605C36.3852 19.8092 35.7412 20.3134 34.8984 20.6733C34.0604 21.0284 33.0495 21.206 31.8658 21.206C30.6915 21.206 29.6688 21.026 28.7976 20.6662C27.9311 20.3063 27.254 19.7737 26.7663 19.0682C26.2834 18.358 26.0301 17.4796 26.0064 16.4332H28.9822C29.0154 16.9209 29.1551 17.3281 29.4013 17.6548C29.6522 17.9768 29.986 18.2206 30.4027 18.3864C30.8241 18.5473 31.3 18.6278 31.8303 18.6278C32.3511 18.6278 32.8033 18.5521 33.1868 18.4006C33.575 18.2491 33.8757 18.0384 34.0888 17.7685C34.3018 17.4986 34.4084 17.1884 34.4084 16.8381C34.4084 16.5114 34.3113 16.2367 34.1172 16.0142C33.9278 15.7917 33.6484 15.6023 33.2791 15.446C32.9145 15.2898 32.4671 15.1477 31.9368 15.0199L30.353 14.6222C29.1267 14.3239 28.1584 13.8575 27.4482 13.223C26.7379 12.5885 26.3852 11.7339 26.3899 10.6591C26.3852 9.77841 26.6196 9.009 27.093 8.35085C27.5713 7.69271 28.227 7.17898 29.0604 6.80966C29.8937 6.44034 30.8407 6.25568 31.9013 6.25568C32.9808 6.25568 33.9231 6.44034 34.728 6.80966C35.5376 7.17898 36.1674 7.69271 36.6172 8.35085C37.067 9.009 37.299 9.77131 37.3132 10.6378H34.3658ZM39.0806 21V6.45455H42.1559V12.8679H42.3477L47.582 6.45455H51.2681L45.8704 12.9673L51.332 21H47.6531L43.6687 15.0199L42.1559 16.8665V21H39.0806ZM52.3697 21V6.45455H55.445V18.4645H61.6808V21H52.3697ZM60.5096 6.45455H63.9542L67.271 12.7188H67.413L70.7298 6.45455H74.1744L68.869 15.858V21H65.815V15.858L60.5096 6.45455Z" fill="#041B3C"/>
</svg>
