<svg width="40" height="40" viewBox="0 0 40 40" fill="none" xmlns="http://www.w3.org/2000/svg">
<rect width="40" height="40" rx="4" fill="white"/>
<path d="M11 26C10.45 26 9.97917 25.8042 9.5875 25.4125C9.19583 25.0208 9 24.55 9 24C9 23.45 9.19583 22.9792 9.5875 22.5875C9.97917 22.1958 10.45 22 11 22C11.1 22 11.1875 22 11.2625 22C11.3375 22 11.4167 22.0167 11.5 22.05L16.05 17.5C16.0167 17.4167 16 17.3375 16 17.2625C16 17.1875 16 17.1 16 17C16 16.45 16.1958 15.9792 16.5875 15.5875C16.9792 15.1958 17.45 15 18 15C18.55 15 19.0208 15.1958 19.4125 15.5875C19.8042 15.9792 20 16.45 20 17C20 17.0333 19.9833 17.2 19.95 17.5L22.5 20.05C22.5833 20.0167 22.6625 20 22.7375 20C22.8125 20 22.9 20 23 20C23.1 20 23.1875 20 23.2625 20C23.3375 20 23.4167 20.0167 23.5 20.05L27.05 16.5C27.0167 16.4167 27 16.3375 27 16.2625C27 16.1875 27 16.1 27 16C27 15.45 27.1958 14.9792 27.5875 14.5875C27.9792 14.1958 28.45 14 29 14C29.55 14 30.0208 14.1958 30.4125 14.5875C30.8042 14.9792 31 15.45 31 16C31 16.55 30.8042 17.0208 30.4125 17.4125C30.0208 17.8042 29.55 18 29 18C28.9 18 28.8125 18 28.7375 18C28.6625 18 28.5833 17.9833 28.5 17.95L24.95 21.5C24.9833 21.5833 25 21.6625 25 21.7375C25 21.8125 25 21.9 25 22C25 22.55 24.8042 23.0208 24.4125 23.4125C24.0208 23.8042 23.55 24 23 24C22.45 24 21.9792 23.8042 21.5875 23.4125C21.1958 23.0208 21 22.55 21 22C21 21.9 21 21.8125 21 21.7375C21 21.6625 21.0167 21.5833 21.05 21.5L18.5 18.95C18.4167 18.9833 18.3375 19 18.2625 19C18.1875 19 18.1 19 18 19C17.9667 19 17.8 18.9833 17.5 18.95L12.95 23.5C12.9833 23.5833 13 23.6625 13 23.7375C13 23.8125 13 23.9 13 24C13 24.55 12.8042 25.0208 12.4125 25.4125C12.0208 25.8042 11.55 26 11 26Z" fill="#003D9B"/>
</svg>
